# xmcd
#
# Track frame offsets: 
#        150
#        37284
#        141613
#        169905
#        209221
#        256074
#
# Disc length: 4238 seconds
#
# Revision: 0
# Processed by: cddbd v1.5.2PL0 Copyright (c) Steve Scherf et al.
# Submitted via: ExactAudioCopy v1.0b3
#
DISCID=64108c06
DTITLE=Ringsgwandl - Das Leben und Schlimmeres: Hilfreiche Geschichten
DYEAR=2011
DGENRE=Speech
TTITLE0=Schwarzhaarige Engländer
TTITLE1=Dialektminderwertigkeitskomplex
TTITLE2=Unfruchtbarkeitssprechstunde
TTITLE3=Jede Menge Gluten
TTITLE4=Flughunde
TTITLE5=Flughunde
EXTD=
EXTT0=
EXTT1=
EXTT2=
EXTT3=
EXTT4=
EXTT5=
PLAYORDER=
